# xmcd
#
# Track frame offsets: 
#        150
#        12982
#        26636
#        42004
#        54153
#        66086
#        81371
#        94739
#        104862
#        118071
#        137486
#
# Disc length: 1999 seconds
#
# Revision: 0
# Processed by: cddbd v1.5.2PL0 Copyright (c) Steve Scherf et al.
# Submitted via: ExactAudioCopy v0.99pb5
#
DISCID=8f07cd0b
DTITLE=Music City Brass - Country
DYEAR=2003
DGENRE=Country
TTITLE0=I Fall to Pieces
TTITLE1=Crazy
TTITLE2=It Was Almost Like A Song
TTITLE3=King of the Road
TTITLE4=Help Me Make it Through the Night
TTITLE5=Gentle on my Mind
TTITLE6=Could I Have This Dance
TTITLE7=From A Jack to A King
TTITLE8=Statue of A Fool
TTITLE9=Your Cheatin' Heart
TTITLE10=Rocky Top
EXTD=
EXTT0=
EXTT1=
EXTT2=
EXTT3=
EXTT4=
EXTT5=
EXTT6=
EXTT7=
EXTT8=
EXTT9=
EXTT10=
PLAYORDER=
